Coordinates
version=1
nRows=14
nColumns=42
inDegrees=yes

Units are S.I. units (second, meters, Newtons, ...)
If the header above contains a line with 'inDegrees', this indicates whether rotational values are in degrees (yes) or radians (no).

endheader
time	pelvis_tilt	pelvis_list	pelvis_rotation	pelvis_tx	pelvis_ty	pelvis_tz	hip_flexion_r	hip_adduction_r	hip_rotation_r	knee_angle_r	knee_adduction_r	knee_angle_r_beta	ankle_angle_r	subtalar_angle_r	mtp_angle_r	hip_flexion_l	hip_adduction_l	hip_rotation_l	knee_angle_l	knee_adduction_l	knee_angle_l_beta	ankle_angle_l	subtalar_angle_l	mtp_angle_l	lumbar_extension	lumbar_bending	lumbar_rotation	arm_flex_r	arm_add_r	arm_rot_r	elbow_flex_r	pro_sup_r	wrist_flex_r	wrist_dev_r	arm_flex_l	arm_add_l	arm_rot_l	elbow_flex_l	pro_sup_l	wrist_flex_l	wrist_dev_l
      0.81000000	      8.42899469	     -1.74138275	     -0.08471150	     -0.21624850	      0.86384672	     -0.29616721	    -29.13257258	      6.06438907	     -0.59489333	     10.14436150	     -3.77552492	      0.17705251	     21.04611348	     15.45730657	     -7.61724663	     16.18431901	     -4.23926678	    -20.86411753	     10.66009723	      4.46355512	      0.18605380	      9.35474615	     12.84646842	     -7.61724663	    -20.78721632	     -1.69933686	      2.99807745	      0.51073372	     -2.22313570	    -15.18757068	     56.38623680	     90.00000001	      0.00000000	      0.00000000	     -3.80053883	     -4.58915726	    -24.02674798	     34.91074474	     90.00000001	      0.00000000	      0.00000000
      0.82000000	      8.21542725	     -1.36282941	     -0.24040636	     -0.20373532	      0.86199479	     -0.29662937	    -29.19638334	      5.30916396	     -2.42150868	     11.29709604	     -3.56462143	      0.19717152	     21.54904318	     17.66606177	     -7.60807931	     16.61053360	     -3.55958798	    -21.51695840	     11.36321157	      4.01318111	      0.19832546	      9.65048715	     14.27324142	     -7.60807931	    -20.37707909	     -2.11497921	      3.00092564	      0.39711856	     -2.18722981	    -15.23137807	     56.28936004	     90.00000001	      0.00000000	      0.00000000	     -3.98396842	     -4.51153306	    -25.05774271	     34.59299511	     90.00000001	      0.00000000	      0.00000000
      0.83000000	      7.83196431	     -1.19876628	     -0.30065751	     -0.19131928	      0.86010956	     -0.29685194	    -29.29041195	      4.99449723	     -2.90932421	     12.09068701	     -3.52564262	      0.21102230	     21.43320075	     17.73301248	     -7.60588192	     17.17905707	     -3.06894572	    -21.05440361	     12.20413127	      3.63214904	      0.21300227	      9.63277737	     13.89861491	     -7.60588192	    -19.81184622	     -2.32036158	      3.03982627	      0.27950874	     -2.16257427	    -15.24340696	     56.00269978	     90.00000001	      0.00000000	      0.00000000	     -4.21865504	     -4.63061405	    -25.10431478	     34.28338385	     90.00000001	      0.00000000	      0.00000000
      0.84000000	      7.47603574	     -0.85449254	     -0.37964070	     -0.17868732	      0.85830874	     -0.29723988	    -29.35994886	      4.43480390	     -3.62074706	     13.00785095	     -3.43647546	      0.22702983	     21.31151505	     17.98133892	     -7.60363561	     17.72550128	     -2.35078504	    -20.51728046	     13.33461403	      3.07881215	      0.23273292	      9.51158152	     13.28259671	     -7.60363561	    -19.26187171	     -2.71627122	      3.05141065	      0.12580022	     -2.11577984	    -15.33087361	     55.70096157	     90.00000001	      0.00000000	      0.00000000	     -4.43657467	     -4.73313955	    -25.31341225	     34.02347632	     90.00000001	      0.00000000	      0.00000000
      0.85000000	      7.31907478	     -0.00704208	     -0.55873357	     -0.16571196	      0.85684135	     -0.29797559	    -29.36975565	      3.09084210	     -5.78080457	     14.45031407	     -3.25558227	      0.25220556	     21.59600110	     20.34495277	     -7.59530927	     17.85106990	     -0.97768959	    -19.74240487	     14.24496850	      2.40250129	      0.24862160	      9.02097908	     12.02305743	     -7.59530927	    -18.91369175	     -3.64735221	      2.99634989	     -0.06772082	     -2.01343859	    -15.47777478	     55.40027979	     90.00000001	      0.00000000	      0.00000000	     -4.61671036	     -4.75214112	    -26.06447567	     33.82461605	     90.00000001	      0.00000000	      0.00000000
      0.86000000	      6.99556723	      0.51176457	     -0.63330204	     -0.15287346	      0.85539072	     -0.29840792	    -29.41048997	      2.33863599	     -6.45726056	     15.49015427	     -3.19455891	      0.27035419	     21.24634274	     20.35035198	     -7.59257737	     18.45423462	     -0.09569820	    -19.15707159	     15.94486356	      1.65772101	      0.27829037	      8.73391876	     11.05934887	     -7.59257737	    -18.42042183	     -4.24508862	      2.98931734	     -0.27463589	     -1.93507098	    -15.60562814	     55.01769279	     90.00000001	      0.00000000	      0.00000000	     -4.82767629	     -4.88831961	    -26.15417793	     33.66578422	     90.00000001	      0.00000000	      0.00000000
      0.87000000	      6.75112555	      1.05274494	     -0.67386807	     -0.14003684	      0.85428757	     -0.29898397	    -29.45792211	      1.52820281	     -7.08516922	     16.66534914	     -3.04828650	      0.29086521	     20.59668982	     20.26503678	     -7.59098024	     19.03155111	      0.80344520	    -18.55482437	     17.86978529	      0.83664479	      0.31188659	      8.47103136	     10.09582927	     -7.59098024	    -18.04587516	     -4.85037707	      2.92400415	     -0.45865695	     -1.84980554	    -15.74772982	     54.58929216	     90.00000001	      0.00000000	      0.00000000	     -4.99349241	     -5.00820297	    -26.26661791	     33.47005872	     90.00000001	      0.00000000	      0.00000000
      0.88000000	      6.56856513	      1.81100318	     -0.77695428	     -0.12701781	      0.85345090	     -0.29953998	    -29.44021739	      0.44332699	     -8.02642393	     18.08767566	     -2.97524431	      0.31568949	     20.03084768	     20.43033591	     -7.58940742	     19.52459197	      1.87660801	    -17.96349419	     19.88958033	      0.08895914	      0.34713866	      8.25100965	      8.69589365	     -7.58940742	    -17.73707347	     -5.71314045	      2.90876819	     -0.68242993	     -1.73336721	    -15.99597902	     54.09589543	     90.00000001	      0.00000000	      0.00000000	     -5.14433469	     -5.12815904	    -26.52677231	     33.41008416	     90.00000001	      0.00000000	      0.00000000
      0.89000000	      6.62339740	      3.09170829	     -0.86946418	     -0.11400837	      0.85322246	     -0.30065630	    -29.40444532	     -1.44735466	    -10.10055341	     20.05112711	     -2.80065337	      0.34995819	     19.56039196	     22.41169255	     -7.58089492	     19.35506512	      3.68320712	    -15.96390663	     21.11879265	     -0.11099204	      0.36859247	      7.40699471	      4.77803374	     -7.58089492	    -17.73060485	     -7.10045056	      2.69170528	     -0.87338573	     -1.57626809	    -16.23884551	     53.59682366	     90.00000001	      0.00000000	      0.00000000	     -5.22532359	     -5.21190260	    -26.95902684	     33.40666241	     90.00000001	      0.00000000	      0.00000000
      0.90000000	      6.63007325	      3.90397105	     -0.93829466	     -0.10105811	      0.85325622	     -0.30128302	    -29.37795321	     -2.62123125	    -10.62928180	     21.79620999	     -2.68721237	      0.38041563	     18.41985741	     22.20504687	     -7.57457914	     19.40446040	      4.75076766	    -14.34351666	     22.87928677	     -0.11036229	      0.39931888	      7.17176226	      1.74089424	     -7.57457914	    -17.70099675	     -8.01580546	      2.59519208	     -1.05500897	     -1.43978273	    -16.50947711	     53.02171145	     90.00000001	      0.00000000	      0.00000000	     -5.32500380	     -5.33047870	    -27.06287487	     33.43321404	     90.00000001	      0.00000000	      0.00000000
      0.91000000	      6.74244012	      4.41234761	     -1.06731097	     -0.08800918	      0.85359601	     -0.30162592	    -29.34185946	     -3.49517426	    -10.68587078	     23.65254127	     -2.58632240	      0.41281472	     16.93318672	     21.77767261	     -7.57373379	     19.40900056	      5.30669914	    -13.43160230	     24.91808926	     -0.09462166	      0.43490270	      7.82314749	      0.63722337	     -7.57373379	    -17.75891000	     -8.62988887	      2.63932526	     -1.27529098	     -1.38435039	    -16.62856885	     52.42900047	     90.00000001	      0.00000000	      0.00000000	     -5.38941820	     -5.41081200	    -27.11326009	     33.42063975	     90.00000001	      0.00000000	      0.00000000
      0.92000000	      6.98570057	      4.97511986	     -1.22174119	     -0.07503540	      0.85430219	     -0.30199218	    -29.19899557	     -4.40519908	    -10.71082025	     25.88938236	     -2.67607387	      0.45185496	     15.36206486	     21.10147384	     -7.57253540	     19.03149682	      5.96394299	    -12.26895204	     26.51963135	      0.13736827	      0.46285488	      8.49853296	     -1.30083219	     -7.57253540	    -17.99381449	     -9.29134745	      2.67147741	     -1.48717364	     -1.31542059	    -16.83085193	     51.83099400	     90.00000001	      0.00000000	      0.00000000	     -5.44903948	     -5.47902800	    -27.16961328	     33.60700172	     90.00000001	      0.00000000	      0.00000000
      0.93000000	      7.30011944	      6.03814144	     -1.26274488	     -0.06242082	      0.85561243	     -0.30291753	    -29.02934184	     -5.91525241	    -10.42603538	     28.34707509	     -2.29227519	      0.49474979	     13.80801929	     20.05965896	     -7.56745011	     17.91969731	      7.35975351	     -9.11354331	     26.72759347	      1.38632101	      0.46648451	      7.55976195	     -6.95001300	     -7.56745011	    -18.39890949	    -10.43385608	      2.37691802	     -1.58384251	     -1.19823082	    -17.12653967	     51.19409843	     90.00000001	      0.00000000	      0.00000000	     -5.47698601	     -5.59842817	    -27.06014791	     33.83071650	     90.00000001	      0.00000000	      0.00000000
      0.94000000	      7.73976245	      6.35567068	     -1.46238694	     -0.04977566	      0.85695880	     -0.30310833	    -28.72643922	     -6.62207874	     -9.71588901	     30.97602063	     -2.26549581	      0.54063355	     11.96425616	     19.69342888	     -7.56669353	     16.95160812	      7.65212834	     -8.49535826	     27.64315990	      1.79744619	      0.48246416	      8.60092583	     -7.58234327	     -7.56669353	    -18.88407655	    -10.83559356	      2.43918294	     -1.73149295	     -1.22480506	    -17.20855206	     50.57782628	     90.00000001	      0.00000000	      0.00000000	     -5.44861872	     -5.61354524	    -27.04224216	     34.03379637	     90.00000001	      0.00000000	      0.00000000
